<svg width="118" height="16" viewBox="0 0 118 16" fill="none" xmlns="http://www.w3.org/2000/svg">
<path d="M68.998 9.20898V15H67.7969V0.78125H72.6406C74.1185 0.78125 75.2839 1.15885 76.1367 1.91406C76.9961 2.66927 77.4258 3.70768 77.4258 5.0293C77.4258 6.36393 77.0124 7.39583 76.1855 8.125C75.3652 8.84766 74.1738 9.20898 72.6113 9.20898H68.998ZM68.998 8.19336H72.6406C73.806 8.19336 74.6947 7.91667 75.3066 7.36328C75.9186 6.8099 76.2246 6.03841 76.2246 5.04883C76.2246 4.06576 75.9186 3.28451 75.3066 2.70508C74.7012 2.11914 73.8385 1.81966 72.7188 1.80664H68.998V8.19336Z" fill="black" fill-opacity="0.87"/>
<path d="M79.2164 9.56055C79.2164 8.54492 79.4117 7.63021 79.8023 6.81641C80.1995 6.0026 80.7561 5.37109 81.4723 4.92188C82.1949 4.46615 83.012 4.23828 83.9234 4.23828C85.3297 4.23828 86.469 4.73307 87.3414 5.72266C88.2138 6.70573 88.65 8.01107 88.65 9.63867V9.88281C88.65 10.9049 88.4514 11.8262 88.0543 12.6465C87.6637 13.4603 87.1103 14.0885 86.3941 14.5312C85.678 14.974 84.8609 15.1953 83.943 15.1953C82.5432 15.1953 81.4039 14.7038 80.525 13.7207C79.6526 12.7311 79.2164 11.4225 79.2164 9.79492V9.56055ZM80.3883 9.88281C80.3883 11.1458 80.7138 12.1842 81.3648 12.998C82.0224 13.8053 82.8818 14.209 83.943 14.209C84.9977 14.209 85.8505 13.8053 86.5016 12.998C87.1591 12.1842 87.4879 11.1133 87.4879 9.78516V9.56055C87.4879 8.75326 87.3382 8.01432 87.0387 7.34375C86.7392 6.67318 86.3193 6.1556 85.7789 5.79102C85.2385 5.41992 84.6201 5.23438 83.9234 5.23438C82.8818 5.23438 82.0322 5.64453 81.3746 6.46484C80.7171 7.27865 80.3883 8.34635 80.3883 9.66797V9.88281Z" fill="black" fill-opacity="0.87"/>
<path d="M96.1047 5.42969C95.8573 5.38411 95.5936 5.36133 95.3137 5.36133C94.5845 5.36133 93.966 5.56641 93.4582 5.97656C92.9569 6.38021 92.5988 6.9694 92.384 7.74414V15H91.2219V4.43359H92.3645L92.384 6.11328C93.0025 4.86328 93.9953 4.23828 95.3625 4.23828C95.688 4.23828 95.9452 4.2806 96.134 4.36523L96.1047 5.42969Z" fill="black" fill-opacity="0.87"/>
<path d="M100.415 1.72852V4.43359H102.602V5.39062H100.415V12.4316C100.415 13.0176 100.519 13.4538 100.727 13.7402C100.942 14.0267 101.297 14.1699 101.792 14.1699C101.987 14.1699 102.303 14.1374 102.739 14.0723L102.788 15.0293C102.482 15.14 102.065 15.1953 101.538 15.1953C100.737 15.1953 100.154 14.9642 99.7898 14.502C99.4253 14.0332 99.243 13.3464 99.243 12.4414V5.39062H97.2996V4.43359H99.243V1.72852H100.415Z" fill="black" fill-opacity="0.87"/>
<path d="M111.844 15C111.727 14.668 111.652 14.1764 111.62 13.5254C111.209 14.0592 110.685 14.4727 110.047 14.7656C109.416 15.0521 108.745 15.1953 108.036 15.1953C107.02 15.1953 106.196 14.9121 105.565 14.3457C104.94 13.7793 104.627 13.0632 104.627 12.1973C104.627 11.1686 105.054 10.3548 105.907 9.75586C106.766 9.1569 107.961 8.85742 109.491 8.85742H111.61V7.65625C111.61 6.90104 111.375 6.30859 110.907 5.87891C110.444 5.44271 109.767 5.22461 108.875 5.22461C108.062 5.22461 107.388 5.43294 106.854 5.84961C106.32 6.26628 106.053 6.76758 106.053 7.35352L104.881 7.34375C104.881 6.50391 105.272 5.77799 106.053 5.16602C106.834 4.54753 107.795 4.23828 108.934 4.23828C110.112 4.23828 111.04 4.53451 111.717 5.12695C112.401 5.71289 112.752 6.5332 112.772 7.58789V12.5879C112.772 13.61 112.879 14.375 113.094 14.8828V15H111.844ZM108.172 14.1602C108.954 14.1602 109.65 13.9714 110.262 13.5938C110.881 13.2161 111.33 12.7116 111.61 12.0801V9.75586H109.52C108.355 9.76888 107.443 9.98372 106.786 10.4004C106.128 10.8105 105.799 11.377 105.799 12.0996C105.799 12.6921 106.017 13.1836 106.454 13.5742C106.896 13.9648 107.469 14.1602 108.172 14.1602Z" fill="black" fill-opacity="0.87"/>
<path d="M117.355 15H116.184V0H117.355V15Z" fill="black" fill-opacity="0.87"/>
<path d="M8.75586 8.65234H2.91602V13.0273H9.74219V15H0.445312V0.78125H9.67383V2.77344H2.91602V6.69922H8.75586V8.65234Z" fill="#C9AD7C"/>
<path d="M16.2789 9.91211H11.152V7.99805H16.2789V9.91211Z" fill="#C9AD7C"/>
<path d="M23.6262 11.9043L27.2395 0.78125H29.9543L24.8371 15H22.4445L17.3469 0.78125H20.052L23.6262 11.9043Z" fill="#C9AD7C"/>
<path d="M34.323 15H31.8621V0.78125H34.323V15Z" fill="#C9AD7C"/>
<path d="M44.9418 11.3379C44.9418 10.7129 44.7204 10.2311 44.2777 9.89258C43.8415 9.55404 43.0505 9.21224 41.9047 8.86719C40.7589 8.52214 39.8474 8.13802 39.1703 7.71484C37.8747 6.90104 37.227 5.83984 37.227 4.53125C37.227 3.38542 37.6924 2.44141 38.6234 1.69922C39.5609 0.957031 40.7751 0.585938 42.266 0.585938C43.2556 0.585938 44.1378 0.768229 44.9125 1.13281C45.6872 1.4974 46.296 2.01823 46.7387 2.69531C47.1814 3.36589 47.4027 4.11133 47.4027 4.93164H44.9418C44.9418 4.18945 44.7074 3.61003 44.2387 3.19336C43.7764 2.77018 43.1124 2.55859 42.2465 2.55859C41.4392 2.55859 40.8109 2.73112 40.3617 3.07617C39.919 3.42122 39.6977 3.90299 39.6977 4.52148C39.6977 5.04232 39.9385 5.47852 40.4203 5.83008C40.9021 6.17513 41.6964 6.51367 42.8031 6.8457C43.9099 7.17122 44.7986 7.54557 45.4691 7.96875C46.1397 8.38542 46.6312 8.86719 46.9437 9.41406C47.2562 9.95443 47.4125 10.5892 47.4125 11.3184C47.4125 12.5033 46.9568 13.4473 46.0453 14.1504C45.1404 14.847 43.9099 15.1953 42.3539 15.1953C41.3253 15.1953 40.378 15.0065 39.5121 14.6289C38.6527 14.2448 37.9822 13.7174 37.5004 13.0469C37.0251 12.3763 36.7875 11.5951 36.7875 10.7031H39.2582C39.2582 11.5104 39.5251 12.1354 40.059 12.5781C40.5928 13.0208 41.3578 13.2422 42.3539 13.2422C43.2133 13.2422 43.8578 13.0697 44.2875 12.7246C44.7237 12.373 44.9418 11.9108 44.9418 11.3379Z" fill="#C9AD7C"/>
<path d="M57.6895 11.6895H52.1816L51.0293 15H48.4609L53.832 0.78125H56.0488L61.4297 15H58.8516L57.6895 11.6895ZM52.875 9.69727H56.9961L54.9355 3.79883L52.875 9.69727Z" fill="#C9AD7C"/>
</svg>
